<svg height="512" viewBox="0 0 256 256" width="512" xmlns="http://www.w3.org/2000/svg"><rect fill="#e0ebfc" height="240" rx="8" width="185" x="21.705" y="8"/><path d="m198.705 250h-169a10.011 10.011 0 0 1 -10-10v-224a10.011 10.011 0 0 1 10-10h169a10.011 10.011 0 0 1 10 10v224a10.011 10.011 0 0 1 -10 10zm-169-240a6.006 6.006 0 0 0 -6 6v224a6.006 6.006 0 0 0 6 6h169a6.006 6.006 0 0 0 6-6v-224a6.006 6.006 0 0 0 -6-6z" fill="#3762cc"/><path d="m93.216 27.5a1.47 1.47 0 0 1 -1.809-.849l-1.767-4.358a1.471 1.471 0 0 0 -1.829-.842l-12.568 4.2a1.472 1.472 0 0 0 -.892 1.961l2.171 5.218c5.09 7.031 6.037 13.324 6.036 20.843 0 3.526.348 10.418-4.464 18.459-1.544 2.579-2.138 5.852.595 11.61a24.9 24.9 0 0 0 13.786 12.441l20.685 7.857a2.951 2.951 0 0 0 2.09 0l20.685-7.857a24.9 24.9 0 0 0 13.78-12.439c2.735-5.759 2.138-9.033.6-11.61-4.546-7.6-4.465-13.954-4.465-18.459 0-7.181.756-13.549 6.037-20.843l2.172-5.218a1.472 1.472 0 0 0 -.892-1.961l-12.568-4.2a1.472 1.472 0 0 0 -1.83.842l-1.769 4.354a1.471 1.471 0 0 1 -1.811.848l-18.26-5.827a8.826 8.826 0 0 0 -5.357 0z" fill="#ffea92"/><path d="m92.985 45.089a2 2 0 0 1 -1.37-3.457 32.953 32.953 0 0 1 45.176 0 2 2 0 1 1 -2.738 2.914 28.956 28.956 0 0 0 -39.7 0 1.993 1.993 0 0 1 -1.368.543z" fill="#eaa97d"/><circle cx="114.205" cy="68.484" fill="#eaa97d" r="22.586"/><path d="m115.881 55.3 3.1 6.283a1.868 1.868 0 0 0 1.407 1.022l6.934 1.008a1.869 1.869 0 0 1 1.036 3.188l-5.017 4.891a1.867 1.867 0 0 0 -.538 1.654l1.184 6.905a1.869 1.869 0 0 1 -2.712 1.971l-6.2-3.26a1.872 1.872 0 0 0 -1.74 0l-6.2 3.26a1.87 1.87 0 0 1 -2.713-1.971l1.185-6.905a1.867 1.867 0 0 0 -.538-1.654l-5.018-4.892a1.869 1.869 0 0 1 1.036-3.188l6.933-1.012a1.869 1.869 0 0 0 1.408-1.022l3.1-6.283a1.869 1.869 0 0 1 3.353.005z" fill="#e0ebfc"/><path d="m114.205 106.231a4.922 4.922 0 0 1 -1.756-.323l-20.684-7.854a26.777 26.777 0 0 1 -14.877-13.454c-2.626-5.531-2.782-9.693-.505-13.5a29.76 29.76 0 0 0 4.183-16.752v-.678c0-7.306-.942-13.141-5.625-19.63a1.989 1.989 0 0 1 -.262-.45l-2.179-5.212a3.472 3.472 0 0 1 2.1-4.626l12.569-4.2a3.482 3.482 0 0 1 4.317 1.987l1.583 3.9 17.89-5.682a10.756 10.756 0 0 1 6.569 0l17.8 5.677 1.582-3.9a3.48 3.48 0 0 1 4.316-1.986l12.569 4.2a3.474 3.474 0 0 1 2.1 4.627l-2.161 5.225a2.023 2.023 0 0 1 -.274.467c-4.693 6.509-5.613 12.125-5.613 19.613v.236c0 4.306 0 10.2 4.179 17.194 2.277 3.8 2.121 7.965-.505 13.5a26.772 26.772 0 0 1 -14.875 13.452l-20.686 7.855a4.942 4.942 0 0 1 -1.755.314zm-35.928-74.392c5.213 7.287 6.286 14.006 6.286 21.837v.656a33.806 33.806 0 0 1 -4.752 18.829c-1.084 1.811-1.849 4.382.687 9.726a22.786 22.786 0 0 0 12.687 11.426l20.685 7.856a.943.943 0 0 0 .67 0l20.686-7.856a22.785 22.785 0 0 0 12.682-11.426c2.536-5.344 1.771-7.915.687-9.726-4.752-7.941-4.749-14.747-4.748-19.251v-.234c0-8.055 1.055-14.531 6.286-21.837l1.861-4.474-11.558-3.859-1.58 3.894a3.488 3.488 0 0 1 -4.273 2l-18.263-5.825a6.826 6.826 0 0 0 -4.142 0l-18.357 5.825a3.483 3.483 0 0 1 -4.267-2l-1.58-3.893-11.559 3.86z" fill="#3762cc"/><g fill="#a4c9ff"><rect height="27.667" rx="6" width="140" x="44.205" y="115.333"/><rect height="15" rx="7.5" width="140" x="44.205" y="158"/><rect height="15" rx="7.5" width="140" x="44.205" y="186"/><rect height="15" rx="7.5" width="140" x="44.205" y="214"/></g><path d="m156.1 186.594-17.669-17.674-9.438 23.2a3 3 0 0 0 3.909 3.91z" fill="#e0ebfc"/><path d="m213.356 94.738h14.995a5 5 0 0 1 5 5v13.881a0 0 0 0 1 0 0h-24.995a0 0 0 0 1 0 0v-13.881a5 5 0 0 1 5-5z" fill="#a4c9ff" transform="matrix(.707 .707 -.707 .707 138.352 -125.654)"/><path d="m133.414 131.808h94.621v24.998h-94.621z" fill="#f9a7a7" transform="matrix(.707 -.707 .707 .707 -49.107 170.058)"/><path d="m132.878 182.572-3.885 9.55a3 3 0 0 0 3.909 3.91l9.551-3.885z" fill="#4671c6"/><path d="m156.108 188.6a2 2 0 0 1 -1.414-.586l-17.677-17.678a2 2 0 0 1 0-2.828l66.911-66.9a2 2 0 0 1 2.828 0l17.674 17.674a2 2 0 0 1 0 2.828l-66.908 66.907a2 2 0 0 1 -1.414.583zm-14.849-19.68 14.849 14.85 64.08-64.079-14.846-14.846z" fill="#3762cc"/><path d="m131.741 198.265a5.016 5.016 0 0 1 -4.6-6.9l9.437-23.2a2 2 0 0 1 3.267-.66l17.674 17.675a2 2 0 0 1 -.661 3.266l-23.2 9.437a5.069 5.069 0 0 1 -1.917.382zm7.406-25.8-8.3 20.41a1 1 0 0 0 1.3 1.3l20.411-8.3z" fill="#3762cc"/><path d="m223.016 121.691a2 2 0 0 1 -1.414-.586l-17.674-17.674a2 2 0 0 1 0-2.828l9.814-9.815a7 7 0 0 1 9.9 0l10.6 10.6a7.009 7.009 0 0 1 0 9.9l-9.816 9.815a2 2 0 0 1 -1.41.588zm-14.846-19.674 14.846 14.846 8.4-8.4a3 3 0 0 0 0-4.243l-10.6-10.6a3.073 3.073 0 0 0 -4.243 0z" fill="#3762cc"/></svg>