<svg height="512pt" viewBox="0 0 512 512" width="512pt" xmlns="http://www.w3.org/2000/svg"><path d="m179.164062 311.625 21.207032 21.210938-39.296875 39.292968-21.207031-21.207031zm0 0" fill="#32393f"/><path d="m317.027344 0c-107.386719 0-194.972656 87.585938-194.972656 194.972656 0 107.382813 87.585937 194.972656 194.972656 194.972656 107.386718 0 194.972656-87.589843 194.972656-194.972656 0-107.386718-87.585938-194.972656-194.972656-194.972656zm0 0" fill="#7c8388"/><path d="m63.625 511.925781-63.625-63.621093 129.261719-129.191407 63.625 63.625zm0 0" fill="#7c8388"/><path d="m512 194.972656c0 107.382813-87.585938 194.972656-194.972656 194.972656v-389.945312c107.386718 0 194.972656 87.585938 194.972656 194.972656zm0 0" fill="#575f64"/><path d="m482.003906 194.972656c0 90.886719-74.089844 164.976563-164.976562 164.976563-90.886719 0-164.976563-74.089844-164.976563-164.976563 0-90.886718 74.089844-164.976562 164.976563-164.976562 90.886718 0 164.976562 74.089844 164.976562 164.976562zm0 0" fill="#e0f4ff"/><path d="m482.003906 194.972656c0 90.886719-74.089844 164.976563-164.976562 164.976563v-329.953125c90.886718 0 164.976562 74.089844 164.976562 164.976562zm0 0" fill="#bbdcff"/><path d="m243.964844 224.96875h29.996094v44.992188h-29.996094zm0 0" fill="#575f64"/><path d="m363.949219 224.96875h29.996093v44.992188h-29.996093zm0 0" fill="#32393f"/><path d="m392.015625 164.976562h-149.976563l29.996094-59.992187h89.984375zm0 0" fill="#bbdcff"/><path d="m392.015625 164.976562h-74.988281v-59.992187h44.992187zm0 0" fill="#9abadb"/><path d="m371.320312 89.988281h-108.585937l-44.992187 89.984375h198.570312zm-104.984374 59.992188 14.996093-29.996094h71.390625l14.996094 29.996094zm0 0" fill="#ed3e3c"/><path d="m416.3125 179.972656h-99.285156v-29.992187h50.691406l-14.996094-29.996094h-35.695312v-29.996094h54.292968zm0 0" fill="#d62f2d"/><path d="m212.042969 149.980469v89.984375h209.898437v-89.984375zm0 0" fill="#ff5e5b"/><path d="m317.027344 149.980469h104.914062v89.984375h-104.914062zm0 0" fill="#ed3e3c"/></svg>